<?xml version="1.0" standalone="no"?>
<!DOCTYPE svg PUBLIC "-//W3C//DTD SVG 20010904//EN"
 "http://www.w3.org/TR/2001/REC-SVG-20010904/DTD/svg10.dtd">
<svg version="1.0" xmlns="http://www.w3.org/2000/svg"
 width="500.000000pt" height="500.000000pt" viewBox="0 0 500.000000 500.000000"
 preserveAspectRatio="xMidYMid meet">
<metadata>
Created by potrace 1.14, written by Peter Selinger 2001-2017
</metadata>
<g transform="translate(0.000000,500.000000) scale(0.100000,-0.100000)"
fill="#000000" stroke="none">
<path d="M0 2500 l0 -2500 2500 0 2500 0 0 2500 0 2500 -2500 0 -2500 0 0
-2500z m3051 1370 c75 -14 170 -63 211 -109 32 -34 41 -39 98 -44 82 -9 157
-44 221 -103 90 -85 87 -77 288 -779 88 -306 101 -358 100 -420 l-2 -70 -7 65
c-9 86 -319 1029 -358 1091 -50 78 -144 139 -234 152 l-38 6 0 -49 c0 -90 -70
-135 -175 -116 -22 5 -54 23 -80 47 -58 54 -75 46 -68 -31 5 -55 4 -61 -24
-88 -57 -57 -171 -51 -232 12 l-32 33 -919 -307 c-778 -259 -926 -312 -962
-340 -37 -29 -39 -30 -18 -6 49 55 41 51 630 268 300 111 858 311 1130 405
106 38 115 43 125 73 13 39 58 80 87 80 31 0 -47 61 -116 91 -30 13 -56 27
-56 32 0 12 72 8 133 -8 74 -19 128 -47 177 -92 51 -45 80 -41 103 17 12 31
25 44 54 56 l38 16 -35 30 c-19 16 -61 42 -94 57 -76 37 -52 51 55 31z m-486
-927 c0 -24 -5 -29 -35 -34 -35 -6 -35 -6 -5 -8 l30 -3 -30 -13 c-16 -8 -44
-14 -61 -15 -41 0 -62 -18 -69 -62 l-7 -36 46 0 c26 1 52 -4 58 -10 9 -9 7
-12 -7 -12 -16 0 -17 -2 -5 -10 16 -10 15 -11 -15 -29 -17 -11 -17 -12 -2 -7
12 4 17 2 15 -6 -3 -7 -29 -19 -59 -27 -30 -8 -55 -15 -55 -15 -1 -1 -5 -23
-8 -50 l-8 -48 43 7 c32 6 40 4 34 -5 -6 -10 -1 -11 19 -6 26 6 37 -8 14 -17
-8 -3 -5 -6 5 -6 10 -1 16 -5 12 -10 -5 -9 -55 -19 -147 -30 -4 -1 -5 -7 -2
-15 5 -13 12 -13 52 0 56 17 70 18 56 4 -5 -5 -32 -14 -58 -19 -47 -9 -50 -8
-85 24 -36 33 -36 34 -34 107 2 68 54 342 67 356 10 10 87 19 166 21 l76 1 -1
-27z m-317 -31 l33 -25 -27 -29 c-19 -19 -38 -28 -59 -28 l-30 0 -25 -140
c-13 -77 -27 -140 -31 -140 -3 0 -9 -23 -12 -52 -4 -28 -13 -58 -21 -66 -12
-12 -13 -10 -9 12 7 36 -2 32 -21 -9 -9 -19 -21 -35 -25 -35 -11 0 -21 73 -15
114 19 152 37 272 41 280 3 4 -12 5 -33 2 -42 -7 -66 3 -70 28 -1 9 4 13 14 9
14 -4 14 -2 -1 10 -34 28 -7 53 75 70 180 39 162 39 216 -1z m-460 -26 c-4
-17 -1 -23 9 -19 7 3 13 9 13 15 0 5 5 6 11 3 6 -4 8 -12 6 -19 -3 -8 7 -11
30 -11 44 2 68 -27 83 -100 9 -44 8 -66 -4 -115 -28 -109 -79 -191 -138 -221
-112 -58 -191 91 -147 279 15 66 79 200 98 205 37 10 43 7 39 -17z m-229 -32
c-7 -8 -9 -17 -5 -21 3 -4 13 2 21 13 11 15 14 16 15 4 0 -9 -4 -20 -8 -25 -5
-6 -5 -26 -1 -45 6 -33 10 -27 13 20 0 10 7 25 14 32 10 10 11 -1 6 -52 -16
-161 -61 -318 -106 -370 -72 -84 -206 -53 -223 52 -10 56 20 269 47 341 7 19
17 27 34 27 13 0 24 -4 24 -10 0 -5 9 -10 20 -10 11 0 20 -2 20 -4 0 -2 -7
-39 -16 -82 -9 -42 -17 -116 -18 -163 -1 -73 1 -86 16 -89 22 -4 63 61 73 116
4 23 10 44 15 47 4 3 6 14 3 24 -6 22 21 86 50 118 11 13 17 26 13 30 -4 4
-16 -3 -28 -17 -14 -18 -18 -20 -14 -7 3 10 6 23 6 28 0 6 5 7 10 4 6 -3 10
-1 10 4 0 6 -4 11 -9 11 -4 0 -7 10 -6 23 3 28 2 27 20 21 12 -5 13 -9 4 -20z
m-352 -30 c39 -25 55 -79 50 -165 -3 -42 -11 -87 -18 -100 -7 -13 -14 -34 -15
-45 -1 -12 -12 -40 -23 -62 -22 -43 -28 -92 -11 -92 6 0 10 -8 10 -17 0 -16
-2 -16 -11 -3 -7 11 -8 5 -3 -21 8 -48 -7 -55 -46 -23 -23 20 -34 24 -43 15
-6 -6 -17 -11 -24 -11 -10 0 -11 5 -3 20 10 18 8 18 -22 8 -18 -6 -38 -15 -45
-20 -18 -15 -68 29 -88 76 -24 58 -29 124 -16 202 12 69 55 174 71 174 5 0 12
9 15 20 4 11 11 18 16 15 5 -4 9 -2 9 3 0 6 15 20 33 31 26 18 41 21 87 16 30
-3 65 -12 77 -21z m-363 -864 c70 -278 136 -524 147 -547 25 -52 106 -128 163
-153 49 -22 142 -36 180 -26 17 4 26 13 26 27 0 40 28 77 71 91 l41 14 -47 33
c-26 19 -73 47 -104 63 l-56 28 75 -4 c101 -5 177 -35 245 -97 62 -58 89 -59
100 -6 10 47 31 75 68 90 l32 13 -45 33 c-25 19 -70 45 -100 60 l-55 26 40 3
c91 8 230 -45 294 -112 19 -20 40 -36 47 -36 6 0 81 25 165 56 275 100 936
333 1276 450 183 62 351 123 373 134 22 11 40 18 40 16 0 -10 -71 -47 -145
-75 -44 -16 -186 -71 -315 -121 -338 -132 -808 -312 -968 -371 -75 -28 -195
-72 -267 -99 l-130 -48 -2 -53 c-3 -65 -26 -99 -79 -117 -53 -18 -114 -7 -164
29 -28 20 -49 29 -64 25 -18 -4 -21 -12 -21 -61 0 -51 -3 -60 -31 -84 -57 -51
-150 -49 -215 6 -29 25 -39 27 -128 28 -87 0 -102 4 -161 32 -103 51 -166 120
-201 219 -19 55 -79 327 -185 832 -33 159 -44 234 -42 290 l1 77 7 -80 c4 -52
51 -257 134 -585z m2746 519 l35 -30 -28 -25 c-15 -13 -39 -24 -52 -24 -13 0
-26 -4 -29 -8 -2 -4 -14 -64 -27 -132 -12 -69 -25 -129 -29 -135 -4 -5 -11
-33 -15 -62 -4 -28 -13 -60 -21 -70 -13 -17 -14 -16 -8 10 8 37 0 34 -27 -10
l-23 -38 -8 40 c-8 45 -3 127 18 260 18 116 18 113 -11 107 -35 -6 -75 6 -75
23 0 9 6 12 18 9 15 -5 15 -4 -1 9 -25 21 -14 55 21 64 60 15 188 41 207 42
11 0 36 -13 55 -30z m-345 -18 c41 -24 45 -66 9 -126 -24 -41 -30 -46 -58 -43
-28 3 -31 7 -36 43 l-5 40 -19 -27 c-27 -41 -14 -72 55 -125 33 -26 58 -52 55
-58 -2 -7 0 -18 6 -26 8 -11 9 -10 4 4 -3 11 -2 16 4 12 15 -9 12 -72 -5 -105
-8 -16 -30 -40 -48 -54 -59 -45 -183 -29 -222 28 -17 24 -19 73 -5 110 12 33
47 35 60 4 5 -13 9 -17 9 -10 1 6 8 12 17 12 10 0 14 -6 11 -14 -3 -7 1 -23 9
-35 17 -24 57 -21 84 6 13 13 13 16 -4 26 -127 78 -152 108 -149 177 4 96 101
198 173 184 14 -3 39 -13 55 -23z m-275 -30 c16 -4 26 -14 27 -28 2 -18 -5
-23 -40 -31 -34 -8 -36 -10 -14 -11 45 -2 21 -19 -37 -26 -69 -9 -74 -13 -82
-62 l-6 -41 48 2 c30 0 49 -4 51 -11 3 -7 -4 -14 -14 -14 -16 -1 -16 -2 0 -6
26 -7 20 -19 -15 -31 -31 -11 -31 -11 -4 -6 51 9 12 -23 -43 -36 -43 -10 -50
-15 -55 -42 -12 -59 -8 -71 18 -64 13 3 32 9 43 13 16 6 17 5 3 -11 -14 -18
-13 -18 20 -12 34 7 34 6 15 -10 -16 -14 -17 -16 -2 -11 9 4 17 3 17 -2 0 -13
-50 -30 -99 -34 -25 -2 -47 -9 -49 -15 -5 -16 15 -15 71 2 52 16 65 4 16 -13
-72 -25 -128 -4 -130 48 -1 17 -3 20 -6 8 -9 -33 -23 -6 -23 45 0 62 58 359
74 375 6 6 43 16 81 21 83 11 102 12 135 3z m-369 -36 c5 4 6 0 3 -8 -3 -8 0
-18 7 -23 7 -4 10 -3 5 4 -3 6 -2 13 4 17 15 9 12 -21 -3 -34 -11 -8 -16 -5
-25 15 -7 14 -12 30 -11 37 0 9 2 9 6 -1 2 -6 9 -10 14 -7z m-349 -41 c40 -37
51 -72 46 -158 -2 -45 -11 -92 -18 -106 -8 -14 -13 -29 -12 -34 2 -5 -9 -38
-24 -73 -22 -52 -25 -67 -16 -88 8 -16 8 -26 1 -31 -7 -4 -6 -10 1 -19 12 -15
6 -35 -12 -35 -5 0 -23 9 -39 20 -23 17 -32 19 -50 9 -20 -10 -21 -9 -17 9 5
19 -12 25 -28 9 -4 -4 -15 -7 -25 -7 -9 0 -19 -5 -21 -11 -5 -16 -56 27 -74
64 -55 106 -17 337 68 415 67 62 70 63 136 59 43 -3 70 -11 84 -23z m217 -19
c2 -3 -1 -33 -7 -68 -26 -140 -33 -213 -23 -240 6 -15 15 -27 20 -27 28 0 75
102 87 190 2 19 10 38 17 42 9 6 9 8 -2 8 -11 0 -11 4 2 18 10 10 15 21 12 24
-3 2 8 17 24 32 l29 27 -4 -33 c-3 -24 -1 -29 6 -18 5 8 10 27 10 42 0 15 5
30 10 33 21 13 -5 -201 -37 -300 -34 -108 -96 -175 -164 -175 -41 0 -91 32
-106 69 -19 45 -12 186 16 307 24 107 24 107 69 89 20 -9 38 -18 41 -20z m105
-24 c-15 -15 -16 -14 -10 2 3 10 6 28 7 40 0 21 1 21 10 -2 7 -19 6 -28 -7
-40z m1383 7 c-3 -8 -6 -5 -6 6 -1 11 2 17 5 13 3 -3 4 -12 1 -19z"/>
<path d="M2385 2520 l-20 -9 20 0 c11 0 29 4 40 9 l20 9 -20 0 c-11 0 -29 -4
-40 -9z"/>
<path d="M1775 2759 c-13 -29 -27 -76 -30 -104 -7 -56 10 -139 26 -129 24 14
61 89 66 134 6 49 -11 135 -29 146 -4 3 -19 -18 -33 -47z"/>
<path d="M1065 2713 c-47 -51 -66 -94 -72 -165 -6 -63 21 -172 42 -165 11 4
11 23 -1 101 -5 36 -3 50 7 57 23 14 39 10 39 -10 0 -11 5 -23 11 -27 8 -4 9
0 4 15 -4 15 -2 21 8 21 9 0 17 -6 20 -12 7 -20 37 91 37 137 0 44 -22 85 -46
85 -8 0 -31 -17 -49 -37z"/>
<path d="M3236 2094 c-5 -14 -4 -15 9 -4 17 14 19 20 6 20 -5 0 -12 -7 -15
-16z"/>
<path d="M2838 1983 c7 -3 16 -2 19 1 4 3 -2 6 -13 5 -11 0 -14 -3 -6 -6z"/>
<path d="M2108 2248 c-68 -73 -91 -173 -63 -271 22 -75 21 -73 39 -58 13 11
12 18 -1 56 -19 58 -14 99 12 103 15 2 24 -5 33 -25 8 -20 11 -22 8 -6 -4 23
20 40 27 20 8 -22 30 47 35 109 7 104 -31 134 -90 72z"/>
</g>
</svg>
